<svg width="100" height="100" viewBox="0 0 100 100" fill="none" xmlns="http://www.w3.org/2000/svg">
<mask id="mask0_430_106" style="mask-type:luminance" maskUnits="userSpaceOnUse" x="0" y="0" width="100" height="100">
<path d="M0 0H100V99.9283H0V0Z" fill="white"/>
</mask>
<g mask="url(#mask0_430_106)">
<path d="M88.7989 0C72.1776 0 49.8753 11.4029 34.8988 31.0075H22.4834C13.5116 31.0075 8.3699 37.7039 4.82936 44.7855L0.090332 54.2636H22.4834L34.1108 65.8916L45.7389 77.5196V99.9126L55.2175 95.1736C62.2986 91.6325 68.9949 86.4908 68.9949 77.5196V65.1042C88.5995 50.1271 100.002 27.8248 100.002 11.2041V0H88.7989ZM68.9949 23.256C73.2764 23.256 76.7469 26.7266 76.7469 31.0075C76.7469 35.289 73.2764 38.7595 68.9949 38.7595C64.7134 38.7595 61.2429 35.289 61.2429 31.0075C61.2429 26.7266 64.7134 23.256 68.9949 23.256ZM18.6074 69.7676L14.7313 73.6436C9.13267 79.2417 6.97933 93.0231 6.97933 93.0231C6.97933 93.0231 20.1419 91.4886 26.3588 85.2711L30.2348 81.3956L18.6074 69.7676Z" fill="#004AAD"/>
</g>
</svg>
